<svg xmlns:xlink="http://www.w3.org/1999/xlink" xmlns="http://www.w3.org/2000/svg" class="icon icon--default list__icon" width="16"  height="16" ><defs><symbol viewBox="0 11 50 39" id="delivery-truck" xmlns="http://www.w3.org/2000/svg"><path d="M11 11C4.898 11 0 15.898 0 22c0 2.3.7 4.5 2 6.3V42c0 1.602 1.398 3 3 3h2.094c.48 2.828 2.949 5 5.906 5s5.426-2.172 5.906-5h9.192c1.601 0 2.804-1.3 2.804-2.8V17.901C31 16.301 29.7 15 28.2 15h-8.7c-2-2.398-5.102-4-8.5-4zm0 2c5 0 9 4 9 9s-4 9-9 9-9-4-9-9 4-9 9-9zm-.016.984c-.55.012-.992.465-.984 1.016v5.75A1.62 1.62 0 009.398 22c.004.059.008.117.016.172l-2.121 2.121a.992.992 0 00-.273.973.99.99 0 00.714.714.992.992 0 00.973-.273l2.117-2.117A1.597 1.597 0 0012.597 22c0-.484-.218-.945-.597-1.25V15a1.003 1.003 0 00-1.016-1.016zM34 20c-1.102 0-2 .898-2 2v21c0 .84.527 1.563 1.266 1.855C33.688 47.754 36.19 50 39.199 50c2.957 0 5.43-2.172 5.91-5H47c1.7 0 3-1.3 3-3v-9.598c0-2-1.398-4.101-1.598-4.304L46.098 25l-1.899-2.5C43.2 21.398 41.7 20 40 20zm4 5h5.598l3.203 4.2c.3.5 1.199 2 1.199 3.1v.7H38c-1 0-2-1-2-2v-4c0-1.102 1-2 2-2zM13 40c2.2 0 4 1.8 4 4s-1.8 4-4 4-4-1.8-4-4 1.8-4 4-4zm26.2 0c2.198 0 4 1.8 4 4s-1.802 4-4 4c-2.2 0-4-1.8-4-4s1.8-4 4-4z"></path></symbol></defs>
<use xlink:href="#delivery-truck" fill="#42526E"></use>
</svg>