<svg xmlns:xlink="http://www.w3.org/1999/xlink" xmlns="http://www.w3.org/2000/svg" class="icon list__icon side-menu__icon" width="28"  height="28" ><defs><symbol viewBox="0 0 32 32" id="delivery-truck-circle" xmlns="http://www.w3.org/2000/svg"><circle fill="#42526E" cx="16" cy="16" r="16"></circle><path fill="#FFFFFF" d="M11.1 8.6c-2.3 0-4.2 1.9-4.2 4.2 0 .9.3 1.7.8 2.4v5.2c0 .6.5 1.1 1.1 1.1h.8c.2 1.1 1.1 1.9 2.2 1.9s2.1-.8 2.2-1.9h3.5c.6 0 1.1-.5 1.1-1.1v-9.2c0-.6-.4-1.1-1-1.1h-3.3c-.8-.9-2-1.5-3.2-1.5zm0 .8c1.9 0 3.4 1.5 3.4 3.4s-1.5 3.4-3.4 3.4-3.4-1.5-3.4-3.4 1.5-3.4 3.4-3.4zm0 .3c-.2 0-.4.2-.4.4v2.2c-.1.1-.2.3-.2.5v.1l-.8.8c-.1.1-.1.2-.1.4 0 .1.1.2.3.3.1 0 .3 0 .4-.1l.8-.8c.3 0 .6-.2.7-.5 0-.2-.1-.4-.2-.5v-2.2c-.1-.4-.3-.6-.5-.6zm8.7 2.3c-.4 0-.8.3-.8.8v8c0 .3.2.6.5.7.2 1.1 1.1 2 2.3 2 1.1 0 2.1-.8 2.2-1.9h.7c.6 0 1.1-.5 1.1-1.1v-3.6c0-.8-.5-1.6-.6-1.6l-.9-1.2-.6-1.1c-.4-.4-1-.9-1.6-.9h-2.3zm1.6 1.9h2.1l1.2 1.6c.1.2.5.8.5 1.2v.3h-3.8c-.4 0-.8-.4-.8-.8v-1.5c0-.4.4-.8.8-.8zm-9.5 5.7c.8 0 1.5.7 1.5 1.5s-.7 1.5-1.5 1.5-1.5-.7-1.5-1.5c-.1-.8.6-1.5 1.5-1.5zm9.9 0c.8 0 1.5.7 1.5 1.5s-.7 1.5-1.5 1.5-1.5-.7-1.5-1.5.7-1.5 1.5-1.5z"></path></symbol></defs>
<use xlink:href="#delivery-truck-circle"></use>
</svg>