<svg xmlns:xlink="http://www.w3.org/1999/xlink" xmlns="http://www.w3.org/2000/svg" class="icon list__icon" width="16"  height="16" ><defs><symbol viewBox="0 0 75 75" id="arabic_books" xmlns="http://www.w3.org/2000/svg"><g fill="none" fill-rule="evenodd"><circle fill="#237F52" cx="37.5" cy="37.5" r="37.5"></circle><path d="M46.984 19c5.86 0 10.078 2.11 10.078 2.11.209.208.417.416.46.789l.01.148v2.812h.937c1.58 0 2.725 1.087 2.807 2.633l.005.18v25.312c0 1.58-1.086 2.725-2.632 2.808l-.18.005H39.25c-.469.469-1.172.937-2.11.937-.87 0-1.538-.202-2.005-.794l-.104-.143H15.813c-1.58 0-2.726-1.087-2.808-2.632l-.005-.18V27.671c0-1.58 1.087-2.725 2.632-2.808l.18-.005h.938v-2.925c.003-.395.04-.61.469-.825 0-.234 4.218-2.109 10.078-2.109 4.922 0 8.437 1.406 9.844 1.875C38.313 20.406 42.063 19 46.984 19zm-.747 2.719c-4.548 0-8.086.937-9.35 1.64-1.25-.475-4.743-1.64-9.23-1.64-4.364 0-7.788.881-9.131 1.576l-.12.064v28.125c1.75-.468 5-1.406 9.25-1.406 4.098 0 7.267.654 9.057 1.331l.185.072.008.003c1.773-.475 5.05-1.406 9.331-1.406 4.143 0 7.346.654 9.155 1.331l.195.075V23.36c-1.263-.468-4.8-1.64-9.35-1.64zM35.97 25.797c.468 0 1.406.469 2.11 1.172.702.703 1.171 1.406 1.405 2.11-.703-.235-1.406-.235-1.875-.235-.703 0-1.406 0-2.343.234-1.172.235-1.875.703-1.875 1.172 0 .938.703 1.406 2.343 1.406.703 0 1.641-.468 2.813-.937 1.172-.469 2.11-.703 2.812-.703-.234.703-.703 1.64-1.172 3.047-2.109.468-3.515 1.171-4.921 2.109-1.875 1.172-2.813 2.578-2.813 4.219 0 1.875 1.875 3.047 5.625 3.515 1.042.209 3.195.232 6.294.234h1.206c-1.64 2.11-4.453 3.047-8.437 3.047-2.11 0-6.094-3.046-6.094-4.921 0-.938.234-2.11.703-3.516.469-1.172.938-2.11 1.64-3.047-1.64-.703-2.578-1.64-2.578-2.812 0-.938.704-2.11 1.875-3.75 1.172-1.641 2.344-2.344 3.282-2.344z" fill="#FFFFFF" fill-rule="nonzero"></path></g></symbol></defs>
<use xlink:href="#arabic_books"></use>
</svg>