<svg xmlns:xlink="http://www.w3.org/1999/xlink" xmlns="http://www.w3.org/2000/svg" title="cancel" class="button__icon side-menu__cancel-icon" width="30"  height="30" ><defs><symbol fill="#42526E" viewBox="0 0 30 30" id="cancel" xmlns="http://www.w3.org/2000/svg"><path d="M.54.54a1.27 1.27 0 00.001 1.799L13.24 15 .541 27.661A1.27 1.27 0 00.54 29.46a1.277 1.277 0 001.803.003L15.08 16.8l12.699 12.661a1.275 1.275 0 001.801-.001 1.27 1.27 0 00-.001-1.799L16.88 15 29.579 2.339A1.27 1.27 0 0029.58.54a1.275 1.275 0 00-1.801-.001L15.08 13.2 2.343.537A1.277 1.277 0 00.54.54z" fill="#42526E"></path></symbol></defs>
<use xlink:href="#cancel" fill="#42526E"></use>
</svg>