<svg xmlns:xlink="http://www.w3.org/1999/xlink" xmlns="http://www.w3.org/2000/svg" title="cart" class="button__icon" width="20"  height="20" ><defs><symbol viewBox="0 0 22 22" id="cart-plus" xmlns="http://www.w3.org/2000/svg"><path d="M1.408 0C.68 0 .085.604.085 1.342c0 .737.595 1.342 1.323 1.342A1.337 1.337 0 002.6.772a3 3 0 012.167 2.394l2.48 14.291a1.994 1.994 0 001.79 1.647 1.68 1.68 0 00-.352 1.022c0 .923.744 1.678 1.654 1.678a1.673 1.673 0 101.313-2.684h4.321a1.68 1.68 0 00-.34 1.006c0 .923.743 1.678 1.653 1.678s1.654-.755 1.654-1.678c0-.378-.13-.724-.34-1.006h1.663v-.67H9.204A1.326 1.326 0 017.9 17.34l-.448-2.58h10.586a2.326 2.326 0 002.252-1.801L22 5.735 5.65 4.382 5.42 3.05C5.112 1.288 3.6 0 1.835 0h-.428zM13.47 7.063c.254 0 .458.206.458.458v1.835h1.835a.458.458 0 110 .917h-1.835v1.834a.457.457 0 01-.458.459.457.457 0 01-.459-.459v-1.834h-1.834a.46.46 0 010-.917h1.834V7.52c0-.252.204-.458.459-.458z"></path></symbol></defs>
<use xlink:href="#cart-plus" fill="#FFFFFF"></use>
</svg>