<svg xmlns:xlink="http://www.w3.org/1999/xlink" xmlns="http://www.w3.org/2000/svg" class="icon list__icon side-menu__icon ar-flip" width="28"  height="28" ><defs><symbol viewBox="0 0 32 32" id="cart-circle" xmlns="http://www.w3.org/2000/svg"><defs><path d="M1.087 0A1.1 1.1 0 000 1.108c0 .609.49 1.107 1.088 1.107.375-.004.721-.2.92-.52.197-.32.22-.718.058-1.058a2.474 2.474 0 011.781 1.976l2.038 11.8a1.64 1.64 0 001.47 1.36A1.385 1.385 0 007.2 17.22c.227.473.701.775 1.224.78a1.37 1.37 0 001.22-.773 1.385 1.385 0 00-.142-1.444h3.549a1.39 1.39 0 00-.137 1.44c.227.468.697.768 1.215.776.52-.005.992-.304 1.22-.773a1.385 1.385 0 00-.141-1.443h1.366v-.552H7.491a1.09 1.09 0 01-1.072-.917l-.368-2.13h8.695c.878 0 1.645-.616 1.85-1.485L18 4.735 4.572 3.617l-.19-1.098A3.008 3.008 0 001.438 0h-.351zm5.661 6.429h8.362a.32.32 0 01.32.321.32.32 0 01-.32.321H6.748a.32.32 0 01-.32-.321.32.32 0 01.32-.321zm-6.507 0h3.378c.132 0 .24.144.24.321 0 .177-.108.321-.24.321H.239C.108 7.071 0 6.927 0 6.75c0-.177.107-.321.24-.321zM8.034 9h5.79a.323.323 0 010 .642h-5.79a.323.323 0 010-.642zM1.608 9h1.928a.32.32 0 01.32.321.32.32 0 01-.32.321H1.608a.323.323 0 010-.642z" id="bga"></path></defs><g fill="none" fill-rule="evenodd"><circle fill="#D4070E" cx="16" cy="16" r="16"></circle><use fill="#FFFFFF" fill-rule="nonzero" xlink:href="#bga" transform="translate(7 7)"></use></g></symbol></defs>
<use xlink:href="#cart-circle"></use>
</svg>