<svg xmlns:xlink="http://www.w3.org/1999/xlink" xmlns="http://www.w3.org/2000/svg" title="cart" class="button__icon" width="22"  height="22" ><defs><symbol viewBox="0 0 32 32" id="cart" xmlns="http://www.w3.org/2000/svg"><path d="M1.932 0A1.957 1.957 0 000 1.97c0 1.082.872 1.968 1.935 1.968a1.95 1.95 0 001.633-.924 1.97 1.97 0 00.105-1.882A4.398 4.398 0 016.84 4.645l3.622 20.977a2.917 2.917 0 002.613 2.417 2.462 2.462 0 00-.275 2.574A2.438 2.438 0 0014.975 32a2.438 2.438 0 002.171-1.374 2.462 2.462 0 00-.253-2.567H23.2a2.47 2.47 0 00-.243 2.56 2.446 2.446 0 002.16 1.379 2.438 2.438 0 002.17-1.374 2.462 2.462 0 00-.252-2.565h2.43v-.982H13.316a1.938 1.938 0 01-1.905-1.63l-.654-3.785h15.458c1.56 0 2.924-1.096 3.289-2.642L32 8.418 8.128 6.43 7.79 4.478A5.347 5.347 0 002.557 0h-.625zm10.065 11.429h14.865a.57.57 0 01.568.571.57.57 0 01-.568.571H11.997A.57.57 0 0111.43 12a.57.57 0 01.568-.571zm-11.57 0h6.006c.236 0 .426.256.426.571 0 .315-.19.571-.426.571H.426C.191 12.571 0 12.315 0 12c0-.315.19-.571.426-.571h.002zM14.283 16h10.293a.574.574 0 01.492.857.568.568 0 01-.492.285H14.282a.568.568 0 01-.492-.285.574.574 0 010-.571.568.568 0 01.492-.286zM2.858 16h3.428a.57.57 0 01.569.571.57.57 0 01-.569.571H2.858a.568.568 0 01-.492-.285.574.574 0 010-.571.568.568 0 01.492-.286z"></path></symbol></defs>
<use xlink:href="#cart" fill="#42526E"></use>
</svg>