<svg xmlns:xlink="http://www.w3.org/1999/xlink" xmlns="http://www.w3.org/2000/svg" title="compare" class="button__icon button__icon--small" width="16"  height="12.42469135802469" ><defs><symbol viewBox="0 0 81 62.9" id="compare" xmlns="http://www.w3.org/2000/svg"><path d="M76.8 34.6H56v-8.4c0-2.5-1.3-3.2-3.2-1.5L35.7 40.3c-1.9 1.7-1.8 4.4 0 6.1L52.8 62c1.9 1.7 3.2 1 3.2-1.5v-8.9h20.8c2.5 0 4.2-1.8 4.2-4.3v-7.9c0-2.5-1.7-4.8-4.2-4.8zM45.3 16.5L28.2.9C26.3-.8 25-.1 25 2.4v9.2H4.2C1.7 11.6 0 13 0 15.5v7.9c0 2.5 1.7 5.1 4.2 5.1H25v8c0 2.5 1.4 3.2 3.2 1.5l17.1-15.6c1.9-1.5 1.9-4.2 0-5.9z"></path></symbol></defs>
<use xlink:href="#compare" fill="#8492A6"></use>
</svg>