<svg xmlns:xlink="http://www.w3.org/1999/xlink" xmlns="http://www.w3.org/2000/svg" class="icon list__icon side-menu__icon" width="30"  height="30" ><defs><symbol viewBox="0 0 225 225" id="secure-circle-fill" xmlns="http://www.w3.org/2000/svg"><g fill="none" fill-rule="evenodd"><path d="M112.492 16.226c-54.415 0-98.529 43.87-98.529 97.985 0 54.114 44.114 97.983 98.529 97.983s98.527-43.869 98.527-97.983c0-54.116-44.112-97.985-98.527-97.985z" fill="#42526E"></path><path d="M112.5 55c6.412 0 11.823 3.13 19.847 6.782 8.025 3.652 18.796 8.062 35.611 11.327l2.042.432v1.804c0 68.466-56.275 94.15-56.275 94.15l-1.143.505-1.144-.505s-14.283-5.835-28.341-20.49C69.038 134.352 55 110.716 55 75.346v-1.804l2.042-.432c16.815-3.265 27.586-7.675 35.61-11.327C100.678 58.129 106.089 55 112.5 55zm17.747 33.764l-1.227 1.948-18.756 29.147-12.409-11.183-1.659-1.515-3.102 3.391 1.731 1.587 14.284 12.986 2.02 1.804 1.515-2.309 20.272-31.455 1.226-1.948-3.895-2.453z" fill="#FFFFFF" fill-rule="nonzero"></path></g></symbol></defs>
<use xlink:href="#secure-circle-fill"></use>
</svg>