<svg xmlns:xlink="http://www.w3.org/1999/xlink" xmlns="http://www.w3.org/2000/svg" class="icon list__icon side-menu__icon" width="28"  height="28" ><defs><symbol viewBox="0 0 22 22" id="flag-saudi-circle" xmlns="http://www.w3.org/2000/svg"><g fill="none" fill-rule="evenodd"><path d="M11 0c6.075 0 11 4.925 11 11s-4.925 11-11 11S0 17.075 0 11 4.925 0 11 0z" fill="#006C35" fill-rule="nonzero"></path><path d="M14.991 15.333v.001c-.258.056-.25.282-.085.381-2.72 0-6.895-.039-7.79-.039-.5 0-2.085-.05-2.116-.05.34.42.832.505 1.476.513l8.4-.013c-.113.17.01.444.1.493a.087.087 0 00.006.004.046.046 0 00.01.003h.005c.105.021.152-.043.187-.09.171.012 1.134.024 1.223-.001v-.002c.06.074.12.144.233.132.199-.036.355-.054.36-.394 0 0-.02-.58-.471-.543-.107.013-.406.039-.406.039-.347-.035-.6-.039-.99-.05.036-.04.099-.195.021-.252a.143.143 0 00-.092-.02h-.005l-.004-.002a.04.04 0 01-.007-.005l-.003-.003c-.02-.024-.03-.083-.043-.098l-.002-.001-.001-.001-.003-.002h-.002zm.185.83h.002c.396.015.77.002 1.166.019.063.045.032.148-.01.167a.05.05 0 01-.006.002h-.011l-.333-.008a.053.053 0 00-.002-.016c-.031-.076-.253-.071-.305-.011l-.002.003a.064.064 0 00-.005.01c-.002.003-.002.006-.002.008l-.002.01c-.173.017-.33-.005-.505-.01-.05-.054-.045-.152.015-.175z" fill="#FFFFFF"></path><path d="M16.41 9.863c.055.027.2-.137.194-.342.016-.105-.04-.494-.184-.56a.123.123 0 00-.053-.006c-.075.01-.146.074-.114.18-.02.06.103.276.134.39.029.082-.036.312.023.336v.002zM5.045 6.56c.177.077.507.045.493-.217 0-.023-.005-.101-.008-.123-.018-.038-.051-.053-.083-.048a.094.094 0 00-.073.07c-.007.026.012.069-.014.082-.014.015-.07.005-.068-.068 0-.022-.018-.047-.03-.061-.01-.008-.018-.01-.038-.01-.025 0-.024.007-.038.025-.006.018-.013.039-.013.06-.003.027-.014.035-.035.04-.023 0-.018.001-.036-.01-.01-.014-.024-.016-.024-.035a.196.196 0 00-.012-.065c-.01-.012-.025-.017-.043-.022-.096 0-.103.102-.098.14-.007.008-.01.188.12.238v.004zm-1.412-.01c.027.062-.027.261.03.28.05.02.122-.138.15-.285.014-.08.003-.356-.2-.412-.01-.002-.022-.006-.033-.006-.077-.002-.163.043-.13.128-.019.047.153.206.183.293v.002zm6.224.074c.101-.252.102-.36.108-.467-.015-.081-.054-.12-.097-.117-.044.005-.092.05-.132.14-.033.07-.075.429-.068.429-.027.107.121.152.189.015zm-1.258-.07c.05.065.1.058.2.012a.196.196 0 00.096-.13c.024-.11-.125.052-.144-.07-.034-.114.062-.16.152-.27C8.905 6.043 8.906 6 8.87 6a.167.167 0 00-.077.027c-.078.048-.233.198-.238.369-.005.097-.024.096.044.158zM3.46 8.288c.515.046.23-.802.417-.955.035-.076.1-.078.105.017v.72c-.004.234.163.303.292.352.135-.01.225-.008.278.114l.064 1.246s.312.082.327-.7c.014-.46-.1-.845-.033-.934.003-.088.125-.093.21-.05.134.088.193.195.402.152.318-.08.51-.223.515-.448-.019-.214-.046-.428-.146-.642.014-.039-.061-.14-.047-.179.057.083.143.076.163 0-.054-.164-.138-.322-.274-.39-.113-.091-.278-.072-.338.119-.028.22.087.48.26.692.037.083.088.221.066.346-.093.048-.184.028-.262-.047 0 0-.253-.175-.253-.214.067-.396.015-.441-.022-.551-.026-.152-.104-.2-.168-.304-.063-.062-.149-.062-.19 0-.112.179-.06.563.022.734.058.158.148.257.105.257-.034.09-.107.068-.159-.035-.075-.213-.09-.53-.09-.673-.022-.178-.047-.557-.174-.653-.034-.043-.074-.057-.112-.053a.156.156 0 00-.12.092c-.008.176-.009.352.013.515.087.284.114.535.156.827.012.39-.244.168-.233-.026.06-.251.043-.647-.009-.748-.042-.1-.09-.125-.192-.108-.08-.005-.288.204-.346.55 0 0-.049.178-.07.336-.028.179-.157.305-.246-.025-.078-.24-.125-.83-.255-.692-.037.46-.08 1.273.344 1.356v.002zm3.315-.783l.002.002h.002c.034.021.447.021.492.002l.002-.001h.001v-.001c.142-.049.814-.757.814-.757-.035-.027-.067-.048-.102-.075-.037-.03-.033-.06 0-.09.167-.089.114-.285.027-.375a.47.47 0 00-.2-.037.383.383 0 00-.161.041c-.117.103-.145.269-.053.372.09.039.179.122.12.168-.254.249-.913.665-.946.741l-.001.002v.004l.001.003.002.001zm.997-1.11l.008-.002c.042-.005.091.031.116.08.026.053.012.103-.03.113-.042.01-.097-.025-.123-.078-.026-.052-.013-.104.03-.113zm.93 1.526c.206.078.337-.282.42-.678.059-.11.103-.123.132-.066-.007.525.041.642.188.802.327.232.597.03.618.01l.255-.235c.056-.055.131-.058.211-.01.078.065.068.178.235.256.14.051.44.012.509-.099.093-.148.116-.198.159-.254.067-.082.18-.046.18-.018-.01.046-.077.09-.031.173.079.055.097.018.144.008.166-.074.29-.405.29-.405.008-.124-.068-.114-.117-.09-.064.037-.068.049-.131.085-.081.012-.239.06-.316-.051-.08-.133-.08-.32-.14-.454 0-.01-.107-.212-.009-.225.05.01.156.034.173-.048.052-.08-.112-.306-.224-.42-.097-.099-.23-.11-.36-.01-.09.076-.077.162-.095.244a.36.36 0 00.084.333c.09.164.255.376.201.674 0 0-.096.141-.264.123-.07-.015-.184-.042-.245-.455-.046-.313.012-.751-.132-.957-.033-.077-.06-.152-.108-.146-.028.002-.062.035-.11.116-.033.083-.18.209-.074.469.086.164.122.432.083.73-.06.085-.074.114-.153.199-.11.11-.23.081-.323.04-.086-.053-.153-.08-.192-.25.007-.27.023-.713-.03-.807-.079-.145-.21-.093-.265-.05-.268.226-.4.607-.48.91-.075.22-.154.157-.21.068-.135-.117-.144-1.03-.308-.88-.261.689.15 1.443.435 1.37v-.002zm-1.077-.49c-.156.077-.216.307-.12.442.092.119.235.076.254.076.153.017.244-.265.244-.265s.004-.079-.177.07c-.076.016-.087-.012-.106-.05a.326.326 0 01.024-.222c.017-.044 0-.071-.036-.075a.158.158 0 00-.083.023zm10.074 3.516c-.034-.036-.109-.015-.16-.018-.024 0-.103-.013-.065-.075a.423.423 0 00.064-.114c.024-.048.003-.08-.083-.107a.587.587 0 00-.106-.01c-.032.001-.065.005-.114.01-.052.01-.07.031-.08.09.004.089.063.084.123.12.035.04.058.077-.003.145l-.155.123c-.027.043-.044.108.039.128.153.04.506-.172.506-.176.057-.04.038-.115.034-.115v-.001zm1.097-3.718c-.012-.079-.05-.26-.035-.283.023-.055.141.006.183-.058.062-.058-.305-.49-.434-.676-.025-.046-.041-.085-.064-.083-.018.002-.04.028-.072.093-.08.12-.107.335-.075.524.191 1.193.333 2.348.363 3.405-.017.1-.022.154-.073.28-.113.134-.237.301-.355.382-.117.08-.367.157-.448.217-.26.138-.26.297-.051.302.36-.038.788-.065 1.082-.475.079-.114.171-.425.175-.616.028-1.115-.015-2.206-.197-3.012zM3.174 9.417l1.34-.592c-.074-.1-.005-.192-.28-.199-.424.008-1.043.511-1.06.791zm.239 1.279c-.111.208-.158.065-.168-.051-.016-.22.007-.424.033-.585.013-.083.013-.111.002-.111-.01 0-.032.03-.06.062-.252.37-.274.922-.135 1.086a.31.31 0 00.285.088c.158-.063.228-.358.19-.466-.053-.077-.094-.089-.147-.023zm3.157-.556c.183-.563-.004-.987.057-1.039L6.63 9.1l.003-.002.003-.001a.032.032 0 01.008-.001c.226.224.543.028.613-.05.03-.039.104-.064.157-.015.176.117.485.062.55-.144a4.22 4.22 0 00.076-.625c-.115.033-.207.058-.245.094-.009.01-.015.018-.017.03l-.03.179a.03.03 0 01-.005.015.044.044 0 01-.021.017c-.041.02-.112.01-.116-.045-.054-.23-.28-.26-.416.096-.092.069-.26.082-.277-.02.022-.238-.082-.27-.29-.158L6.42 7.075c.087-.002.167.056.247-.036-.086-.247-.268-.748-.371-.796l-.003-.001a.202.202 0 00-.021-.02c-.002-.002-.005-.002-.007-.006-.004-.002-.008-.005-.013-.005-.009-.002-.019-.002-.028-.002-.026.002-.054.015-.087.023-.11.032-.212.119-.18.288l.343 2c.02.086-.057.197-.156.186-.17-.105-.211-.32-.5-.31-.209.002-.447.212-.477.414-.034.16-.047.334 0 .474.147.162.323.145.477.108.127-.048.231-.163.276-.136h.001v.002c.028.044-.002.42-.597.712-.365.151-.656.187-.813-.088-.097-.172.007-.826-.231-.675-.706 1.677 1.654 1.911 1.917.07.017-.053.07-.105.106-.092.016.007.03.026.036.064-.055 1.668-1.826 1.782-2.126 1.258-.075-.124-.097-.4-.105-.564-.013-.1-.04-.158-.072-.18-.071-.05-.168.08-.189.304-.03.181-.021.23-.021.405.094 1.317 2.373.751 2.744-.337l-.001.005zM5.69 9v.001l-.002.002c-.018.02-.08.013-.125.013-.053-.002-.08-.01-.112-.05-.016-.045.031-.09.052-.123l.001-.001c.003-.002.006-.008.01-.01a.134.134 0 01.073-.03l.018-.001a.11.11 0 01.108.073A.12.12 0 015.69 9zm9.77 2.158l-.396.1.396-.1zm-2.235-3.416c.176.078.508.044.494-.218 0-.023-.007-.101-.01-.122-.017-.04-.05-.054-.082-.049a.095.095 0 00-.074.07c-.007.027.014.07-.012.082-.015.015-.072.006-.07-.066 0-.023-.018-.049-.03-.063-.01-.008-.018-.01-.038-.01-.024 0-.024.007-.037.025-.006.018-.014.039-.014.06-.003.027-.013.035-.033.04-.023 0-.02.001-.038-.01-.01-.013-.024-.016-.024-.035a.196.196 0 00-.012-.065c-.01-.012-.025-.015-.043-.02-.096 0-.102.101-.096.14-.007.007-.012.189.12.239l-.001.002zm2.842.675c.003-.153.019-.356.028-.482.004-.048.016-.1.065-.113.05-.012.136.046.137-.005-.01-.097-.03-.24-.09-.309a.172.172 0 00-.132-.066.193.193 0 00-.203.156c0 .065.032.1.026.158-.01.033-.047.055-.135.015.014-.012-.058-.105-.058-.105-.07-.039-.162.002-.222.039a.29.29 0 00-.02.247c.1.17.44.46.604.462v.003zm-1.099 2.11c.123.001.265-.259.326-.515.033-.354-.022-.57-.032-.778-.01-.208-.256-1.896-.306-2.054-.06-.297.24-.039.207-.212-.104-.218-.362-.536-.442-.725-.03-.051-.034-.098-.06-.094-.014.003-.036.023-.077.073-.1.303-.136.551-.098.74.26 1.245.525 2.38.482 3.565zm-.92-.254c-.284.273-.693.609-1.138.764-.048.05.12.26.335.26.361-.038.678-.225.972-.717.079-.114.217-.36.221-.55.028-1.115-.06-1.983-.242-2.79a.428.428 0 01.01-.194c.024-.026.103 0 .145-.063.062-.058-.165-.54-.293-.725-.026-.046-.042-.083-.064-.081-.018.001-.04.027-.073.091a.975.975 0 00-.127.525c.172 1.098.225 2.06.337 3.158.01.106-.007.26-.084.322zm-.704-3.547c.063.162-.048.317.017.34.06.025.144-.168.176-.346.036-.144-.075-.439-.233-.5-.012-.002-.025-.002-.038-.005-.09-.003-.19.05-.151.154-.023.057.194.25.229.356v.001zm3.182 1.685l-.014.001-.837.554c-.081.067-.04.3 0 .273.058.02.88-.493.865-.553.036.002.053-.264-.013-.275zm-.575-1.499c.249.282.492.568.729.86.052.612.065 1.174.118 1.788-.008.262-.095.61-.178.644 0 0-.127.067-.212-.008-.062-.022-.308-.379-.308-.379-.126-.106-.21-.076-.3 0-.247.22-.36.633-.527.917-.044.064-.166.117-.302-.005-.28-.352-.2-.824-.182-.906l-.004.015c-.307.319-.171.847-.102.961.102.187.183.306.38.399.18.121.32.046.397-.04.18-.172.183-.613.268-.7.06-.161.208-.133.281-.062.07.093.154.154.257.205a.46.46 0 00.568.037.623.623 0 00.302-.341c.086-.21.044-1.309.024-1.92l.378.504c.055.537.08 1.066.062 1.573-.013.1.381-.301.379-.492v-.457c.191.281.376.567.551.857.109-.052.072-.619.003-.697-.183-.283-.418-.59-.6-.827-.036-.3-.085-.652-.107-.76-.035-.169-.07-.422-.122-.622-.014-.078-.058-.328-.044-.352.021-.055.102.002.142-.063.06-.06-.206-.695-.341-.876-.049-.081-.137-.053-.246.08-.1.086-.064.284-.025.473.1.48.19.97.26 1.459l-.447-.605-.02-.095c0-.01-.022-.393-.04-.485-.004-.037-.013-.048.029-.043.045.035.05.036.079.048.045.007.085-.063.058-.128l-.42-.716c-.018-.015-.037-.032-.059-.035-.021-.002-.045.008-.072.043a.273.273 0 00-.104.213c.012.169.045.342.057.512l.014.068a.645.645 0 00-.047-.051c-.358-.347.164-.057-.069-.325-.196-.199-.254-.262-.423-.382-.084-.05-.135-.147-.163.015-.01.144-.023.31-.012.432 0 .067.075.194.14.269zm2.078.279c.028.081-.044.343.015.367.055.027.132-.18.161-.374.016-.105-.069-.475-.213-.541-.011-.002-.023-.006-.035-.006-.082-.002-.172.055-.136.168-.02.062.175.27.207.385zm-6.244 3.796c0 .008.069.06.15.015.171-.06.278-.118.517-.166.063-.002.06-.156-.04-.162-.13.008-.25.013-.38.106-.079.015-.093-.027-.11-.067-.02-.1.045-.17.032-.245.003.003-.04-.033-.097-.036-.02 0-.04.003-.059.013-.003 0-.18.11-.237.186-.034.025-.03.045-.02.088.027.057.075.04.129.012.072-.01.106.035.1.114-.033.099.015.136.015.142zm.808-1.573h.002l.001-.002.001-.002v-.002l-.001-.013-.078-.042-1.53-.007c-.02-.008-.033-.016-.042-.018a.076.076 0 01-.003-.003l-.001-.001-.001-.001-.002-.002v-.003l-.002-.001v-.012l.001-.002.001-.002c.007-.01.026-.017.049-.026.365-.046 1.014-.144 1.058-.72-.008-.299-.14-.495-.539-.55a.509.509 0 00-.468.57c-.014.078.028.23-.058.247-.563.048-1.177.372-1.197.605h-.002l-.001.001-.003.002h-.02c-.036-.01-.084-.065-.076-.143a2.623 2.623 0 00-.386-1.207c-.08-.074-.114-.103-.136-.107h-.012a.01.01 0 00-.006.006l-.004.002c-.017.012-.038.04-.083.069-.077.08-.09.136-.086.297.004.015.146.379.265.633.081.265.156.567.1.853-.188.378-.568.717-.934.901-.187.055-.348.036-.39-.001l-.002-.002a.215.215 0 01-.103-.205l.001-.002c.31-.199.662-.359.939-.895.082-.205.106-.328.025-.644a.596.596 0 00-.158-.299l.002-.001c.052-.023.189.07.21.012a.919.919 0 00-.27-.457c-.11-.093-.23-.103-.33-.018-.114.058-.138.267-.083.45.06.138.225.162.341.44v.001c.003.015.04.207-.018.284-.048.137-.66.582-.705.61l-.004.002-.001.002h-.001l-.002.002h-.003v-.002a.01.01 0 01-.002-.003c-.002-.013.001-.04 0-.085-.004-.084.033-.273.03-.305v-.004h-.002c-.203.12-.27.49-.307.6-.513.326-1.096.57-1.431.9-.175.252 1.204-.288 1.364-.354.002.001.003.003.004.006.03.03.033.138.125.235.143.18.448.29.744.221.498-.165.784-.478 1.076-.824.041-.056.107-.1.167-.057.2.414.778.708 1.525.738.173-.194.09-.289.02-.33-.021-.015-.371-.139-.426-.264-.034-.116.05-.22.216-.297.48-.053.951-.113 1.407-.248a1.08 1.08 0 01.156-.444c.042-.064.069-.07.079-.08v-.002zm-1.262-.885c.001-.006.003-.008.005-.013l.003-.005.001-.002a.064.064 0 01.007-.007.087.087 0 01.039-.015.23.23 0 01.119.03c.06.032.098.081.094.117v.005s-.003.002-.003.006l-.002.005v.002c-.001 0-.002.001-.002.003l-.008.01c-.03.025-.097.02-.161-.013-.06-.032-.098-.082-.094-.117l.002-.005v-.001zm-.612 1.413c-.164.051-.322.092-.323.31.022.109.017.166-.001.192l-.005.007-.002.002v.001l-.002.001-.002.002-.002.001c-.003.002-.006.002-.008.005l-.009.002c-.039.005-.095-.03-.137-.05-.102-.067-.386-.23-.426-.577-.006-.079.058-.147.16-.153h.018c.17.042.422.047.64.067.178.01.265.14.099.193v-.003zM7.128 9.46c-.004.063.188.14.2.284.027.06-.042.251.015.27.053.02.125-.133.153-.275.015-.077-.066-.349-.204-.397-.021-.006-.043-.008-.065-.006-.067.006-.126.037-.1.124zm3.084-.884c.177.078.597.032.494-.218 0-.022-.006-.1-.009-.122-.018-.039-.051-.053-.083-.048a.094.094 0 00-.074.069c-.007.026.014.07-.011.083-.015.015-.072.005-.07-.067 0-.023-.018-.048-.03-.063-.01-.007-.017-.01-.037-.01-.024 0-.025.007-.039.026-.006.018-.013.038-.013.06-.003.026-.013.035-.034.039-.023 0-.017.002-.036-.01-.01-.013-.025-.016-.025-.035a.202.202 0 00-.01-.064c-.01-.013-.027-.015-.045-.02-.096 0-.102.1-.096.14-.007.007-.012.188.119.239v.001zm1.493-1.788c.295.366.58.734.854 1.114.043.283.075.559.095.834.045.604.058 1.355.018 1.99.122.006.319-.182.388-.456.045-.379-.016-1.152-.02-1.376a12.416 12.416 0 00-.016-.32c.334.503.645 1.02.933 1.55.111-.048.087-.623.022-.704-.244-.483-.58-.96-.687-1.143a8.952 8.952 0 00-.327-.464 6.484 6.484 0 00-.08-.64c-.05-.32.143.037.116-.15-.063-.32-.255-.539-.482-.833-.073-.095-.071-.115-.185.023a.57.57 0 00-.047.369 2.005 2.005 0 00-.119-.146l-.37-.29c-.052-.033-.15-.085-.224-.079-.045.006-.08.028-.094.09a.867.867 0 00.017.34c.02.08.146.213.208.29zm.625-.02c.007.03.016.061.02.093.017.068.032.136.047.204a3.084 3.084 0 00-.141-.173c-.148-.161.003-.106.075-.124z" fill="#FFFFFF" fill-rule="nonzero"></path></g></symbol></defs>
<use xlink:href="#flag-saudi-circle"></use>
</svg>