<svg xmlns:xlink="http://www.w3.org/1999/xlink" xmlns="http://www.w3.org/2000/svg" class="icon list__icon" width="40"  height="40" ><defs><symbol viewBox="0 0 75 75" id="digital_cards" xmlns="http://www.w3.org/2000/svg"><g fill="none"><circle fill="#9C223F" cx="37.5" cy="37.5" r="37.5"></circle><path d="M50.055 13a4.059 4.059 0 014.059 4.059v41.719a4.059 4.059 0 01-4.059 3.992H23.992A4.059 4.059 0 0120 58.71V16.993A4.059 4.059 0 0124.06 13zM37.351 37.333c-5.287 0-8.943 3.56-8.943 8.707 0 5.21 3.646 8.688 9.11 8.688.993 0 1.975-.115 2.727-.312v-1.858c-.543.166-1.536.292-2.497.292-4.43 0-7.188-2.6-7.188-6.756 0-4.103 2.737-6.923 6.76-6.923 3.855 0 6.331 2.423 6.331 6.202 0 1.943-.586 3.164-1.505 3.164-.564 0-.898-.438-.898-1.18v-5.304h-2.403v1.232h-.199c-.418-.94-1.306-1.483-2.434-1.483-2.069 0-3.458 1.712-3.458 4.25 0 2.652 1.441 4.406 3.614 4.406 1.202 0 2.017-.533 2.445-1.587h.199c.281.991 1.243 1.576 2.59 1.576 2.603 0 4.2-2.036 4.2-5.325 0-4.636-3.415-7.79-8.451-7.79zm-.335 6.62c.95 0 1.546.825 1.546 2.171 0 1.347-.585 2.172-1.546 2.172-.95 0-1.515-.814-1.515-2.172 0-1.357.565-2.171 1.515-2.171zm.041-25.175c-1.04 0-1.885.843-1.885 1.884v.048h-2.56a1.401 1.401 0 100 2.803h8.89a1.401 1.401 0 000-2.803h-2.56v-.08a1.884 1.884 0 00-1.885-1.852z" fill="#FFFFFF"></path></g></symbol></defs>
<use xlink:href="#digital_cards"></use>
</svg>