<svg xmlns:xlink="http://www.w3.org/1999/xlink" xmlns="http://www.w3.org/2000/svg" class="icon" width="14"  height="15" ><defs><symbol viewBox="0 0 14 15" id="delivery-truck-circle-outline" xmlns="http://www.w3.org/2000/svg"><path d="M7 .5c-3.862 0-7 3.138-7 7s3.138 7 7 7 7-3.138 7-7-3.138-7-7-7zm0 .583A6.412 6.412 0 0113.417 7.5 6.412 6.412 0 017 13.917 6.412 6.412 0 01.583 7.5 6.412 6.412 0 017 1.083zM4.252 3.255a2.228 2.228 0 10-1.825 3.51V9.54c0 .337.272.608.609.608h.424a1.218 1.218 0 001.197 1.013c.6 0 1.1-.44 1.197-1.013H7.73c.15 0 .287-.061.39-.157a.592.592 0 00.387.157h.223a1.218 1.218 0 001.198 1.013 1.22 1.22 0 001.216-1.216 1.22 1.22 0 00-1.216-1.216c-.6 0-1.101.44-1.198 1.013h-.22a.218.218 0 01-.137-.066.214.214 0 01-.067-.136V5.688c0-.076.127-.203.203-.203h1.621c.161 0 .39.176.545.362l.032.044h-.982a.61.61 0 00-.608.608v.81c0 .17.078.315.186.423a.599.599 0 00.422.186h2.027V9.54c0 .076-.127.202-.203.202h-.405v.406h.405a.607.607 0 00.609-.608V7.59c0-.463-.324-.873-.324-.873l-.003-.003-.84-1.12-.003-.004c-.187-.226-.47-.51-.858-.51H8.51a.59.59 0 00-.203.037v-.462a.583.583 0 00-.57-.589H5.97a2.229 2.229 0 00-1.72-.81zm0 .406c1.01 0 1.824.815 1.824 1.824 0 1.01-.815 1.825-1.824 1.825a1.822 1.822 0 01-1.825-1.825c0-1.01.815-1.824 1.825-1.824zm-.003.2a.204.204 0 00-.2.205v1.172a.319.319 0 00-.117.247l.001.032-.433.433a.201.201 0 00-.055.197.2.2 0 00.145.145.201.201 0 00.197-.055l.433-.433.032.001a.32.32 0 00.202-.567V4.066a.203.203 0 00-.205-.206zm1.986.61h1.5c.088 0 .166.085.166.184v4.916a.17.17 0 01-.171.171H5.854A1.218 1.218 0 004.657 8.73c-.6 0-1.1.44-1.197 1.013h-.424c-.077 0-.203-.126-.203-.202V7.203c.385.32.88.512 1.419.512 1.229 0 2.23-1 2.23-2.23 0-.365-.09-.71-.247-1.013zm3.49 1.825h1.286l.492.657c.001.001.187.317.225.56H9.725a.22.22 0 01-.135-.068.22.22 0 01-.068-.135v-.811c0-.102.12-.203.203-.203zM4.657 9.134c.45 0 .811.36.811.81 0 .452-.36.812-.81.812a.808.808 0 01-.812-.811c0-.45.36-.81.811-.81zm5.27 0c.451 0 .812.36.812.81 0 .452-.36.812-.811.812a.808.808 0 01-.811-.811c0-.45.36-.81.81-.81z"></path></symbol></defs>
<use xlink:href="#delivery-truck-circle-outline" fill="#8492A6"></use>
</svg>