<svg xmlns:xlink="http://www.w3.org/1999/xlink" xmlns="http://www.w3.org/2000/svg" class="icon list__icon side-menu__icon" width="29"  height="29" ><defs><symbol viewBox="0 0 32 32" id="info-circle" xmlns="http://www.w3.org/2000/svg"><defs><path d="M3.84.64c-.97 0-1.76.79-1.76 1.76s.79 1.76 1.76 1.76S5.6 3.37 5.6 2.4 4.81.64 3.84.64zM.8 5.12a.32.32 0 00-.32.32v1.92c0 .178.144.32.32.32h1.6v5.12H.8a.32.32 0 00-.32.32v1.92c0 .178.144.32.32.32h6.4a.32.32 0 00.32-.32v-1.92a.32.32 0 00-.32-.32H5.6V5.44a.32.32 0 00-.32-.32H.8z" id="dua"></path></defs><g fill="none" fill-rule="evenodd"><circle fill="#42526E" cx="16" cy="16" r="16"></circle><use fill="#FFFFFF" fill-rule="nonzero" xlink:href="#dua" transform="translate(12 8)"></use></g></symbol></defs>
<use xlink:href="#info-circle"></use>
</svg>