<svg xmlns:xlink="http://www.w3.org/1999/xlink" xmlns="http://www.w3.org/2000/svg" class="icon list__icon side-menu__icon" width="28"  height="28" ><defs><symbol viewBox="0 0 32 32" id="star-circle" xmlns="http://www.w3.org/2000/svg"><defs><path d="M10.609 24.116a.494.494 0 01-.212-.071.403.403 0 01-.14-.396l1.55-5.897-4.653-3.848c-.141-.072-.177-.252-.141-.395a.34.34 0 01.317-.252l5.993-.324 2.15-5.717c.071-.108.212-.216.353-.216s.282.108.317.216l2.15 5.717 5.994.324a.34.34 0 01.317.252.411.411 0 01-.105.395l-4.654 3.848 1.551 5.897a.363.363 0 01-.14.396c-.106.071-.283.107-.389 0l-5.04-3.309-5.042 3.309c-.07.071-.106.071-.176.071z" id="hta"></path></defs><g fill="none" fill-rule="evenodd"><circle fill="#0052CC" cx="16" cy="16" r="16"></circle><use fill="#FFFFFF" fill-rule="nonzero" xlink:href="#hta"></use></g></symbol></defs>
<use xlink:href="#star-circle"></use>
</svg>