<svg xmlns:xlink="http://www.w3.org/1999/xlink" xmlns="http://www.w3.org/2000/svg" class="jr-social__image jr-social__image--instagram" width="27"  height="27" ><defs><symbol viewBox="0 0 512 512" id="instagram" xmlns="http://www.w3.org/2000/svg"><path fill="#FFFFFF" d="M341.95 69h-171.9A101.17 101.17 0 0069 170.05v171.9A101.17 101.17 0 00170.05 443h171.9A101.17 101.17 0 00443 341.95v-171.9A101.17 101.17 0 00341.95 69zm70.84 272.95a70.92 70.92 0 01-70.84 70.84h-171.9a70.92 70.92 0 01-70.84-70.84v-171.9a70.92 70.92 0 0170.84-70.84h171.9a70.92 70.92 0 0170.84 70.84z"></path><path fill="#FFFFFF" d="M339.7 243a83.85 83.85 0 10-83.14 96.18 85 85 0 0012.48-.92A83.87 83.87 0 00339.7 243zm-75.09 65.37a53.65 53.65 0 1145.2-60.94 53.28 53.28 0 01-45.2 60.89zm96.61-157.55a15.11 15.11 0 104.43 10.68 15.22 15.22 0 00-4.43-10.72z"></path><path fill="none" d="M0 0h512v512H0z"></path></symbol></defs><use xlink:href="#instagram"></use></svg>