<svg xmlns:xlink="http://www.w3.org/1999/xlink" xmlns="http://www.w3.org/2000/svg" title="language" class="button__icon side-menu__language-icon" width="48"  height="48" ><defs><symbol viewBox="0 0 48 48" id="language" xmlns="http://www.w3.org/2000/svg"><path d="M3 0C1.348 0 0 1.348 0 3v26c0 1.652 1.348 3 3 3h11.594l2.469-2.469 1.406 1.407L16 33.406V45c0 1.652 1.348 3 3 3h26c1.652 0 3-1.348 3-3V19c0-1.652-1.348-3-3-3H33.406L31 18.406 29.594 17 32 14.594V3c0-1.652-1.348-3-3-3H3zm39.281.281L36.594 6l5.687 5.719 1.438-1.438L39.406 6l4.313-4.281L42.28.28zM28.188 18.406l1.406 1.407-1.375 1.406-1.438-1.438 1.407-1.375zm-2.782 2.782l1.407 1.406L25.405 24 24 22.594l1.406-1.407zM8.374 10.925c0-1.58.548-2.852 1.638-3.784.856-.744 1.882-1.126 3.068-1.142 1.607 0 2.893.647 3.825 1.926l.067.206v2.55l-.635-.896c-.832-1.171-1.864-1.744-3.125-1.744-.814 0-1.453.265-1.942.8-.495.54-.744 1.244-.744 2.128 0 1.04.304 1.853.912 2.461.577.59 1.35.885 2.346.885h4.244v2.064h-4.2c-1.333 0-2.318.355-2.98 1.057-.495.52-.74 1.16-.74 1.937 0 .955.345 1.724 1.044 2.33.666.573 1.546.862 2.654.862h.044c1.602 0 2.871-.354 3.818-1.053l.558-.413v2.228l-.163.104c-1.26.798-2.681 1.198-4.257 1.198-1.853 0-3.34-.587-4.436-1.76A4.924 4.924 0 018 19.395c0-.975.253-1.862.76-2.653a4.681 4.681 0 011.52-1.492c-1.27-.944-1.906-2.397-1.906-4.325zm22.438 12.98h2.375L39.907 41h-2.5L35.5 35.812h-7.188L26.407 41h-2.312l6.718-17.094zM22.595 24L24 25.406l-1.375 1.407-1.438-1.438L22.595 24zm9.312 1.906l-2.906 8h5.813l-2.907-8zm-12.093.875l1.406 1.407-1.407 1.406-1.406-1.407 1.407-1.406zm-15.094 9.5L3.28 37.72 7.594 42 3.28 46.281l1.44 1.439L10.406 42 4.72 36.281z"></path></symbol></defs>
<use xlink:href="#language" fill="#0052CC"></use>
</svg>