<svg xmlns:xlink="http://www.w3.org/1999/xlink" xmlns="http://www.w3.org/2000/svg" class="jr-social__image" width="27"  height="27" ><defs><symbol viewBox="0 0 112.2 112.2" id="linkedin" xmlns="http://www.w3.org/2000/svg"><circle cx="56.1" cy="56.1" r="56.1" fill="#007AB9"></circle><path d="M89.6 60.6v23.1H76.2V62.2c0-5.4-1.9-9.1-6.8-9.1-3.7 0-5.9 2.5-6.9 4.9-.4.9-.4 2.1-.4 3.3v22.5H48.7s.2-36.5 0-40.3h13.4v5.7l-.1.1h.1v-.1c1.8-2.7 5-6.7 12.1-6.7 8.8 0 15.4 5.7 15.4 18.1zM34.7 24c-4.6 0-7.6 3-7.6 7 0 3.9 2.9 7 7.4 7h.1c4.7 0 7.6-3.1 7.6-7-.1-4-3-7-7.5-7zm-6.8 59.7h13.4V43.4H27.9v40.3z" fill="#F1F2F2"></path></symbol></defs><use xlink:href="#linkedin"></use></svg>