<svg xmlns:xlink="http://www.w3.org/1999/xlink" xmlns="http://www.w3.org/2000/svg" class="icon list__icon" width="20"  height="20" ><defs><symbol viewBox="0 0 14 15" id="lock-circle" xmlns="http://www.w3.org/2000/svg"><path d="M7 .5c-3.862 0-7 3.138-7 7s3.138 7 7 7 7-3.138 7-7-3.138-7-7-7zm0 .583A6.412 6.412 0 0113.417 7.5 6.412 6.412 0 017 13.917 6.412 6.412 0 01.583 7.5 6.412 6.412 0 017 1.083zm0 2.334c-.97 0-1.75.811-1.75 1.82v.91h-.292c-.48 0-.875.41-.875.91v3.033c0 .5.395.91.875.91h4.084c.48 0 .875-.41.875-.91V7.057c0-.5-.395-.91-.875-.91H8.75v-.91c0-1.009-.78-1.82-1.75-1.82zM7 4c.664 0 1.167.575 1.167 1.333v1H5.833v-1C5.833 4.575 6.336 4 7 4zM4.958 6.917h.535a.292.292 0 00.095 0h2.821a.292.292 0 00.095 0h.538a.29.29 0 01.291.291v2.917a.29.29 0 01-.291.292H4.958a.29.29 0 01-.291-.292V7.208a.29.29 0 01.291-.291zM7 7.5a.583.583 0 00-.292 1.088v.37c0 .175.117.292.292.292s.292-.117.292-.292v-.37A.583.583 0 007 7.5z"></path></symbol></defs>
<use xlink:href="#lock-circle" fill="#8492A6"></use>
</svg>