<svg xmlns:xlink="http://www.w3.org/1999/xlink" xmlns="http://www.w3.org/2000/svg" class="icon list__icon" width="40"  height="40" ><defs><symbol viewBox="0 0 75 75" id="computer_supplies" xmlns="http://www.w3.org/2000/svg"><g fill="none" fill-rule="evenodd"><circle fill="#76689A" cx="37.5" cy="37.5" r="37.5"></circle><path d="M49.094 17c0 5.625-2.344 5.86-5.39 6.328-2.579.469-5.626.703-6.798 4.688h2.11c.937-2.11 2.578-2.344 4.922-2.578 3.28-.47 7.265-.938 7.265-8.204h-2.11V17zm-32.11 12.89c-2.109 0-3.984 1.641-3.984 3.985v19.453c0 2.11 1.64 3.984 3.984 3.984H58c2.11 0 3.984-1.64 3.984-3.984V33.875c0-2.11-1.64-3.984-3.984-3.984H16.984zm.938 5.86h3.984v3.984h-3.984V35.75zm5.86 0h3.984v3.984H23.78V35.75zm5.859 0h3.984v3.984h-3.984V35.75zm5.859 0h3.984v3.984H35.5V35.75zm5.86 0h3.984v3.984h-3.985V35.75zm5.859 0h3.984v3.984H47.22V35.75zm5.86 0h3.983v3.984h-3.984V35.75zm-35.157 5.86h6.797v3.984h-6.797v-3.985zm8.906 0h3.985v3.984h-3.985v-3.985zm5.86 0h3.984v3.984h-3.984v-3.985zm5.859 0h3.984v3.984h-3.984v-3.985zm5.86 0h3.984v3.984h-3.985v-3.985zm5.859 0h6.797v3.984h-6.797v-3.985zm-32.344 5.859h3.984v3.984h-3.984V47.47zm5.86 0h3.984v3.984H23.78V47.47zm5.859 0h15.703v3.984H29.64V47.47zm17.578 0h3.984v3.984H47.22V47.47zm5.86 0h3.983v3.984h-3.984V47.47z" fill="#FFFFFF" fill-rule="nonzero"></path></g></symbol></defs>
<use xlink:href="#computer_supplies"></use>
</svg>