<svg xmlns:xlink="http://www.w3.org/1999/xlink" xmlns="http://www.w3.org/2000/svg" class="icon list__icon" width="40"  height="40" ><defs><symbol viewBox="0 0 75 75" id="smartphone_accessories" xmlns="http://www.w3.org/2000/svg"><g fill="none" fill-rule="evenodd"><circle fill="#BC4077" cx="37.5" cy="37.5" r="37.5"></circle><path d="M25.442 15.74c4.585 0 6.918 2.537 7 6.636l.002.264.008 31.078c0 3.788 3.963 6.58 7.202 6.58 3.17 0 6.706-3.122 6.855-6.324l.004-.209.001-4.718h-1.799v-1.95h5.833v1.95h-1.683v4.644c0 4.146-3.961 8.704-8.938 8.865l-.273.005c-4.97 0-9.403-3.486-9.552-8.516l-.004-.271.001-31.035c.006-2.934-1.232-4.902-4.657-4.924-3.34-.022-4.476 2.376-4.635 4.739l-.01.181-.009 10.437h.652v1.473h-3.69v-1.472l.687-.001.003-10.442c0-3.802 2.18-6.863 6.716-6.986l.286-.004zM55.084 12a4.116 4.116 0 014.116 4.116V42.15a4.116 4.116 0 01-4.116 4.115H40.412a4.116 4.116 0 01-4.116-4.115V16.116A4.116 4.116 0 0140.412 12zM17 35.544l5.268.002a1 1 0 011 1v5.446a1 1 0 01-1 1h-.062v2.042c0 .474-.475.86-1.063.86h-2.945c-.587 0-1.064-.386-1.064-.86v-2.042h-.121a1 1 0 01-1-.998L16 36.546a1 1 0 01.997-1.002H17zm4.142 8.286h-2.944v1.204h2.945V43.83zM50.64 20.056l-7.475 9.77h3.952l-2.512 8.384 7.637-9.862H48.17l2.47-8.292z" fill="#FFFFFF" fill-rule="nonzero"></path></g></symbol></defs>
<use xlink:href="#smartphone_accessories"></use>
</svg>