<svg xmlns:xlink="http://www.w3.org/1999/xlink" xmlns="http://www.w3.org/2000/svg" class="icon icon--default list__icon" width="16"  height="16" ><defs><symbol viewBox="0 0 14.5 19" id="store" xmlns="http://www.w3.org/2000/svg"><path d="M7.308.365c3.394 0 6.936 2.723 6.942 6.608.008 4.667-6.942 11.662-6.942 11.662S.358 11.63.365 6.973C.371 3.082 3.914.365 7.308.365zm-.58 7.207v2.519c-1.282-.097-1.922-1.056-1.922-1.056H3.348c1.584 2.9 4.649 2.276 4.649 2.276V7.572h-1.27zm.628-.097c.353 0 .64-.27.64-.608a.627.627 0 00-.64-.613c-.353 0-.643.274-.643.613 0 .338.29.608.643.608zm1.043 2.544v1.245s2.865-.501 3.417-3.736h-1.284s-.2 1.867-2.133 2.49zm-4.698-5.42h1.68s2.16-1.652 4.246.313H3.398S2.32 6.544 3.148 8.7H4.53s-.828-1.463-.252-2.544h7.416s-.532-3.137-4.096-3.38c0 0-2.694-.142-3.896 1.822z"></path></symbol></defs>
<use xlink:href="#store" fill="#42526E"></use>
</svg>