<svg xmlns:xlink="http://www.w3.org/1999/xlink" xmlns="http://www.w3.org/2000/svg" class="icon list__icon side-menu__icon" width="28"  height="28" ><defs><symbol viewBox="0 0 32 32" id="location-solid" xmlns="http://www.w3.org/2000/svg"><g fill="none" fill-rule="evenodd"><circle fill="#42526E" cx="16" cy="16" r="16"></circle><path d="M15.795 6.39c3.62 0 7.398 2.903 7.405 7.048.008 4.978-7.405 12.439-7.405 12.439S8.382 18.406 8.39 13.438c.006-4.15 3.785-7.048 7.405-7.048z" fill="#FFFFFF" fill-rule="nonzero"></path><path d="M15.176 14.077h1.354v3.989s-3.27.665-4.959-2.429h1.555s.683 1.023 2.05 1.127v-2.687zm.67-.104c-.376 0-.686-.288-.686-.648 0-.362.31-.654.686-.654.377 0 .684.292.684.654 0 .36-.307.648-.684.648zm1.113 2.714c2.062-.666 2.276-2.657 2.276-2.657h1.37a4.762 4.762 0 01-3.646 3.985v-1.328zm-5.011-5.78c1.281-2.096 4.155-1.945 4.155-1.945a4.573 4.573 0 014.37 3.605h-7.911c-.614 1.154.27 2.714.27 2.714h-1.474c-.884-2.3.267-4.042.267-4.042h6.644c-2.225-2.095-4.529-.333-4.529-.333h-1.792z" fill="#42526E"></path></g></symbol></defs>
<use xlink:href="#location-solid"></use>
</svg>