<svg xmlns:xlink="http://www.w3.org/1999/xlink" xmlns="http://www.w3.org/2000/svg" class="icon list__icon" width="16"  height="16" fill="#0052cc" ><defs><symbol viewBox="0 0 20 20" id="help" xmlns="http://www.w3.org/2000/svg"><path d="M10 0C4.482 0 0 4.482 0 10s4.482 10 10 10 10-4.482 10-10S15.518 0 10 0zm0 .87A9.124 9.124 0 0119.13 10 9.124 9.124 0 0110 19.13 9.124 9.124 0 01.87 10 9.124 9.124 0 0110 .87zm.126 3.699c-1.622 0-2.697.982-2.932 2.48-.015.093.031.155.125.17l.983.173c.094.016.156-.031.171-.125.187-.951.748-1.482 1.621-1.482.89 0 1.513.562 1.513 1.45 0 .531-.187.89-.732 1.638l-1.046 1.434c-.327.453-.467.78-.467 1.405v.639c0 .093.062.156.156.154h1.029c.093 0 .155-.062.155-.155v-.499c0-.53.094-.748.406-1.17l1.045-1.434c.53-.733.795-1.279.795-2.027 0-1.544-1.139-2.651-2.822-2.651zm-.686 9.123c-.094 0-.156.063-.156.157v1.34c0 .094.062.156.156.156h1.186c.093 0 .155-.062.155-.156v-1.34c0-.094-.062-.157-.155-.157H9.44z"></path></symbol></defs>
<use xlink:href="#help"></use>
</svg>