<svg xmlns:xlink="http://www.w3.org/1999/xlink" xmlns="http://www.w3.org/2000/svg" class="icon" width="12"  height="13.142857142857144" ><defs><symbol viewBox="0 0 21 23" id="secure" xmlns="http://www.w3.org/2000/svg"><path d="M10.805 0C9.69 0 8.749.626 7.353 1.356c-1.395.73-3.269 1.613-6.193 2.266l-.355.086v.361c0 7.074 2.441 11.801 4.886 14.732 2.445 2.931 4.93 4.098 4.93 4.098l.198.101.199-.101s9.787-5.137 9.787-18.83v-.36l-.355-.087c-2.925-.653-4.798-1.535-6.193-2.266C12.86.626 11.92 0 10.805 0zm0 .923c.747 0 1.614.51 3.04 1.256 1.354.707 3.26 1.574 6.022 2.236-.167 12.521-8.492 17.218-9.076 17.532-.283-.14-2.25-1.138-4.418-3.737-2.285-2.74-4.547-7.146-4.63-13.795 2.762-.662 4.667-1.53 6.022-2.236 1.426-.745 2.292-1.256 3.04-1.256zm3.494 5.83l-.241.39-3.693 5.829-2.444-2.237-.326-.303-.611.678.34.318 2.813 2.597.398.36.298-.46 3.992-6.292.241-.39-.767-.49z"></path></symbol></defs>
<use xlink:href="#secure" fill="#8492A6"></use>
</svg>