<svg xmlns:xlink="http://www.w3.org/1999/xlink" xmlns="http://www.w3.org/2000/svg" title="share" class="button__icon button__icon--small" width="16"  height="16" ><defs><symbol viewBox="0 0 14 14" id="share" xmlns="http://www.w3.org/2000/svg"><path d="M11.2 0a2.801 2.801 0 00-2.8 2.756V2.8a2.79 2.79 0 001.391 2.415c.414.242.896.385 1.409.385 1.544 0 2.8-1.256 2.8-2.8C14 1.256 12.744 0 11.2 0zM7.858 3.036L4.995 4.471A3.34 3.34 0 016.15 6.816l2.896-1.452a3.346 3.346 0 01-1.19-2.328zM2.8 4.2A2.803 2.803 0 000 7c0 1.544 1.256 2.8 2.8 2.8a2.77 2.77 0 001.549-.473A2.797 2.797 0 005.6 7a2.803 2.803 0 00-2.8-2.8zm3.351 2.984a3.36 3.36 0 01-1.146 2.353l2.853 1.427a3.343 3.343 0 011.18-2.328L6.152 7.184zM11.2 8.4c-.577 0-1.111.18-1.557.481A2.791 2.791 0 008.4 11.2v.009c-.012 0-.023.007-.035.008l.035.018A2.803 2.803 0 0011.2 14c1.544 0 2.8-1.256 2.8-2.8 0-1.544-1.256-2.8-2.8-2.8z"></path></symbol></defs>
<use xlink:href="#share" fill="#8492A6"></use>
</svg>