<svg xmlns:xlink="http://www.w3.org/1999/xlink" xmlns="http://www.w3.org/2000/svg" class="jr-social__image" width="27"  height="27" ><defs><symbol viewBox="0 0 595 595" id="snapchat" xmlns="http://www.w3.org/2000/svg"><circle fill="#FFFC00" cx="297.6" cy="297.6" r="297.6"></circle><path fill="#FFFFFF" stroke="#000000" stroke-width="12px" stroke-miterlimit="10" d="M464.8 378.1c-46.5-7.7-67.5-55.3-68.3-57.3-.1-.1-.1-.3-.2-.4-2.4-4.8-2.9-8.8-1.6-11.8 2.5-6 12.3-9 18.7-11.1 1.9-.6 3.6-1.2 5.1-1.7 6.4-2.5 10.9-5.2 13.9-8.3 3.6-3.7 4.3-7.2 4.2-9.5-.1-5.6-4.4-10.5-11.2-12.9-2.3-.9-4.9-1.4-7.6-1.4-1.8 0-4.5.2-7 1.4-5.4 2.5-10.3 3.9-14.5 4.1-2.2-.1-3.8-.6-4.8-1 .1-2.2.3-4.4.4-6.7l.1-1c1.5-23.6 3.3-52.9-4.4-70.3-5.3-11.9-12.5-22.2-21.3-30.5-7.4-7-15.9-12.6-25.5-16.8-16.6-7.3-32-8.4-39.7-8.4h-.8c-2.2 0-5.7.1-6 .1-7.7 0-23.2 1.1-39.8 8.4-9.5 4.2-18 9.8-25.4 16.8-8.8 8.3-15.9 18.5-21.2 30.4-7.8 17.4-5.9 46.7-4.5 70.2.2 2.5.3 5.2.5 7.7-1.1.5-3 1.1-5.7 1.1-4.4 0-9.6-1.4-15.5-4.2-1.7-.8-3.7-1.2-5.9-1.2-3.5 0-7.2 1-10.4 2.9-4 2.4-6.7 5.7-7.4 9.4-.5 2.4-.4 7.3 5 12.2 3 2.7 7.3 5.2 13 7.4 1.5.6 3.2 1.1 5.1 1.7 6.4 2 16.2 5.1 18.7 11.1 1.3 3 .7 7-1.7 11.8-.1.1-.1.3-.2.4-.6 1.4-6.2 13.9-17.5 27.1-6.5 7.5-13.6 13.8-21.1 18.7-9.2 6-19.2 9.8-29.7 11.5-4.1.7-7 4.3-6.8 8.5.1 1.2.3 2.4.8 3.5 1.7 3.9 5.5 7.2 11.8 10.1 7.7 3.5 19.1 6.5 34 8.9.8 1.4 1.5 5 2.1 7.5.6 2.6 1.2 5.3 2 8.2.9 3.1 3.3 6.8 9.3 6.8 2.3 0 4.9-.5 8-1.1 4.5-.9 10.6-2.1 18.2-2.1 4.2 0 8.6.4 13.1 1.1 8.5 1.4 15.9 6.6 24.4 12.6 12.4 8.8 26.5 18.7 48.1 18.7.6 0 1.2 0 1.8-.1.7 0 1.6.1 2.5.1 21.5 0 35.6-9.9 48.1-18.7 8.5-6 15.9-11.2 24.4-12.6 4.4-.7 8.8-1.1 13.1-1.1 7.3 0 13.1.9 18.2 1.9 3.4.7 6 1 8 1h.4c4.4 0 7.7-2.4 8.9-6.7.8-2.8 1.4-5.4 2-8.1.5-2.3 1.3-6 2.1-7.4 14.9-2.3 26.4-5.3 34-8.9 6.2-2.9 10.1-6.2 11.8-10 .5-1.2.8-2.3.9-3.6.1-4.1-2.9-7.8-7-8.4z"></path><path fill="#FFFFFF" d="M464.8 378.1c-46.5-7.7-67.5-55.3-68.3-57.3-.1-.1-.1-.3-.2-.4-2.4-4.8-2.9-8.8-1.6-11.8 2.5-6 12.3-9 18.7-11.1 1.9-.6 3.6-1.2 5.1-1.7 6.4-2.5 10.9-5.2 13.9-8.3 3.6-3.7 4.3-7.2 4.2-9.5-.1-5.6-4.4-10.5-11.2-12.9-2.3-.9-4.9-1.4-7.6-1.4-1.8 0-4.5.2-7 1.4-5.4 2.5-10.3 3.9-14.5 4.1-2.2-.1-3.8-.6-4.8-1 .1-2.2.3-4.4.4-6.7l.1-1c1.5-23.6 3.3-52.9-4.4-70.3-5.3-11.9-12.5-22.2-21.3-30.5-7.4-7-15.9-12.6-25.5-16.8-16.6-7.3-32-8.4-39.7-8.4h-.8c-2.2 0-5.7.1-6 .1-7.7 0-23.2 1.1-39.8 8.4-9.5 4.2-18 9.8-25.4 16.8-8.8 8.3-15.9 18.5-21.2 30.4-7.8 17.4-5.9 46.7-4.5 70.2.2 2.5.3 5.2.5 7.7-1.1.5-3 1.1-5.7 1.1-4.4 0-9.6-1.4-15.5-4.2-1.7-.8-3.7-1.2-5.9-1.2-3.5 0-7.2 1-10.4 2.9-4 2.4-6.7 5.7-7.4 9.4-.5 2.4-.4 7.3 5 12.2 3 2.7 7.3 5.2 13 7.4 1.5.6 3.2 1.1 5.1 1.7 6.4 2 16.2 5.1 18.7 11.1 1.3 3 .7 7-1.7 11.8-.1.1-.1.3-.2.4-.6 1.4-6.2 13.9-17.5 27.1-6.5 7.5-13.6 13.8-21.1 18.7-9.2 6-19.2 9.8-29.7 11.5-4.1.7-7 4.3-6.8 8.5.1 1.2.3 2.4.8 3.5 1.7 3.9 5.5 7.2 11.8 10.1 7.7 3.5 19.1 6.5 34 8.9.8 1.4 1.5 5 2.1 7.5.6 2.6 1.2 5.3 2 8.2.9 3.1 3.3 6.8 9.3 6.8 2.3 0 4.9-.5 8-1.1 4.5-.9 10.6-2.1 18.2-2.1 4.2 0 8.6.4 13.1 1.1 8.5 1.4 15.9 6.6 24.4 12.6 12.4 8.8 26.5 18.7 48.1 18.7.6 0 1.2 0 1.8-.1.7 0 1.6.1 2.5.1 21.5 0 35.6-9.9 48.1-18.7 8.5-6 15.9-11.2 24.4-12.6 4.4-.7 8.8-1.1 13.1-1.1 7.3 0 13.1.9 18.2 1.9 3.4.7 6 1 8 1h.4c4.4 0 7.7-2.4 8.9-6.7.8-2.8 1.4-5.4 2-8.1.5-2.3 1.3-6 2.1-7.4 14.9-2.3 26.4-5.3 34-8.9 6.2-2.9 10.1-6.2 11.8-10 .5-1.2.8-2.3.9-3.6.1-4.1-2.9-7.8-7-8.4z"></path></symbol></defs><use xlink:href="#snapchat"></use></svg>