<svg xmlns:xlink="http://www.w3.org/1999/xlink" xmlns="http://www.w3.org/2000/svg" class="jr-social__image" width="27"  height="26.960975609756096" ><defs><symbol viewBox="0 0 41 40.9" enable-background="new 0 0 41 40.9" id="tiktok" xmlns="http://www.w3.org/2000/svg"><filter filterUnits="objectBoundingBox" height="125%" id="hza" width="125%" x="-12.5%" y="-10%"><feOffset dy="1" in="SourceAlpha" result="shadowOffsetOuter1"></feOffset><feGaussianBlur in="shadowOffsetOuter1" result="shadowBlurOuter1" stdDeviation="1.5"></feGaussianBlur><feColorMatrix in="shadowBlurOuter1" result="shadowMatrixOuter1" values="0 0 0 0 0 0 0 0 0 0 0 0 0 0 0 0 0 0 0.2 0"></feColorMatrix><feMorphology in="SourceAlpha" radius=".5" result="shadowSpreadOuter2"></feMorphology><feOffset dy="2" in="shadowSpreadOuter2" result="shadowOffsetOuter2"></feOffset><feGaussianBlur in="shadowOffsetOuter2" result="shadowBlurOuter2" stdDeviation=".5"></feGaussianBlur><feColorMatrix in="shadowBlurOuter2" result="shadowMatrixOuter2" values="0 0 0 0 0 0 0 0 0 0 0 0 0 0 0 0 0 0 0.12 0"></feColorMatrix><feOffset dy="1" in="SourceAlpha" result="shadowOffsetOuter3"></feOffset><feGaussianBlur in="shadowOffsetOuter3" result="shadowBlurOuter3" stdDeviation=".5"></feGaussianBlur><feColorMatrix in="shadowBlurOuter3" result="shadowMatrixOuter3" values="0 0 0 0 0 0 0 0 0 0 0 0 0 0 0 0 0 0 0.14 0"></feColorMatrix><feMerge><feMergeNode in="shadowMatrixOuter1"></feMergeNode><feMergeNode in="shadowMatrixOuter2"></feMergeNode><feMergeNode in="shadowMatrixOuter3"></feMergeNode></feMerge></filter><g transform="translate(3 2)" filter="url(#hza)"><circle cx="18" cy="18" r="20"></circle></g><circle cx="21" cy="20" r="20" fill="#212121"></circle><path d="M26 16.9c1.6 1.1 3.5 1.8 5.6 1.8v-4c-.4 0-.8 0-1.2-.1v3.2c-2.1 0-4-.7-5.6-1.8v8.2c0 4.1-3.3 7.4-7.4 7.4-1.5 0-2.9-.5-4.1-1.3 1.3 1.4 3.2 2.2 5.3 2.2 4.1 0 7.4-3.3 7.4-7.4v-8.2zm1.5-4.1c-.8-.9-1.3-2-1.4-3.3V9H25c.2 1.6 1.2 3 2.5 3.8zM15.9 27.1c-.4-.6-.7-1.3-.7-2.1 0-1.9 1.5-3.4 3.4-3.4.3 0 .7.1 1 .2v-4.1c-.4-.1-.8-.1-1.2-.1v3.2c-.3-.1-.7-.2-1-.2-1.9 0-3.4 1.5-3.4 3.4.1 1.4.8 2.5 1.9 3.1z" fill-rule="evenodd" clip-rule="evenodd" fill="#EC407A"></path><path d="M24.9 15.9c1.6 1.1 3.5 1.8 5.6 1.8v-3.2c-1.2-.2-2.2-.9-3-1.7-1.3-.8-2.3-2.2-2.6-3.8H22v16c0 1.9-1.5 3.4-3.4 3.4-1.1 0-2.1-.5-2.7-1.3-1.1-.6-1.9-1.7-1.9-3 0-1.9 1.5-3.4 3.4-3.4.4 0 .7.1 1 .2v-3.2c-4 .1-7.3 3.4-7.3 7.4 0 2 .8 3.8 2.1 5.2 1.2.8 2.6 1.3 4.1 1.3 4.1 0 7.4-3.3 7.4-7.4l.2-8.3z" fill-rule="evenodd" clip-rule="evenodd" fill="#FFFFFF"></path><path d="M30.5 14.5v-.9c-1.1 0-2.1-.3-3-.8.8.9 1.8 1.5 3 1.7zM24.9 9c0-.2 0-.3-.1-.5V8h-4v16c0 1.9-1.5 3.4-3.4 3.4-.5 0-1.1-.1-1.5-.4.6.8 1.6 1.3 2.7 1.3 1.9 0 3.4-1.5 3.4-3.4V9h2.9zm-6.4 8.6v-.9c-.3 0-.7-.1-1-.1-4.1.1-7.5 3.4-7.5 7.5 0 2.6 1.3 4.8 3.3 6.2-1.3-1.4-2.1-3.2-2.1-5.3 0-4 3.3-7.3 7.3-7.4z" fill-rule="evenodd" clip-rule="evenodd" fill="#81D4FA"></path></symbol></defs><use xlink:href="#tiktok"></use></svg>