<svg xmlns:xlink="http://www.w3.org/1999/xlink" xmlns="http://www.w3.org/2000/svg" class="jr-social__image" width="27"  height="27" ><defs><symbol viewBox="0 0 112.2 112.2" id="twitter" xmlns="http://www.w3.org/2000/svg"><circle cx="56.1" cy="56.1" r="56.1" fill="#55ACEE"></circle><path d="M90.5 40.3c-2.4 1.1-5 1.8-7.7 2.1 2.8-1.7 4.9-4.3 5.9-7.4-2.6 1.5-5.5 2.7-8.5 3.3-2.4-2.6-5.9-4.2-9.8-4.2-7.4 0-13.4 6-13.4 13.4 0 1.1.1 2.1.3 3.1-11.1-.6-21-5.9-27.6-14-1.2 2-1.8 4.3-1.8 6.7 0 4.7 2.4 8.8 6 11.2-2.2-.1-4.3-.7-6.1-1.7v.2c0 6.5 4.6 11.9 10.8 13.1-1.1.3-2.3.5-3.5.5-.9 0-1.7-.1-2.5-.2 1.7 5.3 6.7 9.2 12.5 9.3-4.6 3.6-10.4 5.7-16.7 5.7-1.1 0-2.1-.1-3.2-.2 5.9 3.8 13 6 20.6 6C70.5 87.2 84 66.8 84 49v-1.7c2.4-1.9 4.7-4.3 6.5-7z" fill="#F1F2F2"></path></symbol></defs><use xlink:href="#twitter"></use></svg>