<svg xmlns:xlink="http://www.w3.org/1999/xlink" xmlns="http://www.w3.org/2000/svg" class="book-type__icon" width="24"  height="24" ><defs><symbol viewBox="0 0 13 15" id="ebook" xmlns="http://www.w3.org/2000/svg"><g fill="none" fill-rule="evenodd"><path d="M.553 1.687h12.098v13.056H.553z" fill="none"></path><path d="M11.52 11.19L7.3 12.935V4.697l4.22-1.744v8.238zm-1.713 2.047c-.224.09-.405-.081-.405-.38 0-.3.181-.615.405-.704.223-.089.405.082.405.381 0 .3-.182.614-.405.703zm-5.544-.712l-.028-1.154c.975-.252 1.033-1.948 1.033-1.948l.657.219c-.209 2.905-1.662 2.883-1.662 2.883zM1.632 9.598l.746.248s.35.999 1.006 1.303l-.058-2.33.649.215.085 3.465s-1.552.056-2.428-2.901zM3.959 8.38c.007.313-.135.513-.314.454-.181-.06-.335-.36-.343-.672-.008-.313.134-.52.316-.458.179.059.333.364.34.676zm-2.435.872c-.474-2.137.039-3.467.039-3.467l3.184 1.062c-1.11-2.178-2.176-1.013-2.176-1.013l-.859-.286c.57-1.612 1.949-1.023 1.949-1.023 1.826.827 2.168 3.826 2.168 3.826L2.041 7.088c-.268.907.188 2.399.188 2.399l-.705-.235zm10.561-7.42c-.487-.258-.967-.134-1.47.083l-4.013 1.79-4.063-1.79c-.504-.217-.892-.203-1.211-.082-.512.196-.775.51-.775 1.084v8.205c0 .7.403 1.331 1.017 1.596l4.336 1.865c.095.04.445.16.743.16.26 0 .557-.12.65-.16l4.335-1.865c.615-.265 1.017-.896 1.017-1.596V2.917c0-.574-.12-.851-.566-1.086z" fill="#9E1D22"></path><path d="M2.101 1.308l.13.037.111.04c.168.066.311.136.478.208.326.144.669.3 1.01.459l2.654 1.236c-.48-.347-1.388-1-2.307-1.63a338.79 338.79 0 01-.502-.337 8.57 8.57 0 00-.486-.301 1.056 1.056 0 00-.43-.142 1.265 1.265 0 00-.408.017 1.166 1.166 0 00-.53.266 1.185 1.185 0 00-.09.09c.042.002.081.003.124.009.08.015.159.022.246.048" fill="#9E1D22"></path><path d="M3.356.349h3.128v2.714H3.356z" fill="none"></path><path d="M3.617.603l.089.056.074.055c.11.087.202.172.31.263.211.18.433.374.651.569l1.237 1.102c.154.129.383.312.506.415-.292-.38-.884-1.094-1.399-1.731-.2-.244-.404-.497-.596-.698a.843.843 0 00-.29-.203 1.005 1.005 0 00-.306-.078.874.874 0 00-.537.123c.029.012.059.022.089.035.056.03.113.053.172.092m6.709.991c.167-.073.31-.143.478-.209l.112-.04.13-.036c.087-.027.166-.035.246-.05.042-.005.082-.006.122-.008a1.2 1.2 0 00-.301-.239 1.14 1.14 0 00-.318-.116 1.263 1.263 0 00-.408-.018 1.058 1.058 0 00-.43.141 8.99 8.99 0 00-.485.301l-.502.337a123.27 123.27 0 00-2.308 1.631l2.655-1.236c.34-.16.683-.315 1.01-.458" fill="#9E1D22"></path><path d="M6.662.349H9.79v2.714H6.66z" fill="none"></path><path d="M8.405 1.546c.218-.195.44-.388.651-.569.108-.091.2-.175.31-.263L9.441.66l.088-.056c.059-.039.116-.063.172-.092.03-.013.06-.023.09-.035a.874.874 0 00-.537-.123 1.004 1.004 0 00-.308.078.85.85 0 00-.288.203c-.193.201-.397.454-.596.698-.515.637-1.108 1.35-1.4 1.731.123-.103.352-.286.506-.415l1.237-1.102" fill="#9E1D22"></path><path d="M.037 14.743h12.614V.349H.037z" fill="none"></path></g></symbol></defs>
                <use xlink:href="#ebook">
            </use></svg>