<svg xmlns:xlink="http://www.w3.org/1999/xlink" xmlns="http://www.w3.org/2000/svg" class="icon list__icon side-menu__icon" width="28"  height="28" ><defs><symbol viewBox="0 0 32 32" id="customer-circle" xmlns="http://www.w3.org/2000/svg"><defs><path d="M19.132 19.472c-.577-.237-1.292-.544-1.292-.782v-1.53a3.445 3.445 0 001.36-2.72V12.4c0-1.87-1.53-3.4-3.4-3.4a3.41 3.41 0 00-3.4 3.4v2.04c0 1.055.51 2.108 1.36 2.72v1.53c0 .205-.715.51-1.292.782C11.075 20.05 9 20.935 9 23.28v.34h13.6v-.34c0-2.345-2.075-3.23-3.468-3.808z" id="cfa"></path></defs><g fill="none" fill-rule="evenodd"><circle fill="#42526E" cx="16" cy="16" r="16"></circle><use fill="#FFFFFF" fill-rule="nonzero" xlink:href="#cfa"></use></g></symbol></defs>
<use xlink:href="#customer-circle"></use>
</svg>