<svg xmlns:xlink="http://www.w3.org/1999/xlink" xmlns="http://www.w3.org/2000/svg" class="jr-social__image" width="27"  height="27" ><defs><symbol viewBox="0 0 473.9 473.9" id="youtube" xmlns="http://www.w3.org/2000/svg"><circle cx="237" cy="237" r="237" fill="#D42428"></circle><path d="M404.5 69.4c92.5 92.5 92.5 242.6 0 335.1-92.5 92.5-242.6 92.5-335.1 0L404.5 69.4z" fill="#CC202D"></path><path d="M469.2 284.4L351.9 167.1l-138.3 15.7-83.7 129.5 156.3 156.3c92-19.3 164.2-92 183-184.2z" fill="#BA202E"></path><path d="M361 191.2c0-19.9-16.1-36-35.9-36H156.4c-19.8 0-35.9 16.1-35.9 36v96.4c0 19.9 16.1 36 35.9 36H325c19.9 0 35.9-16.1 35.9-36v-96.4h.1zm-144.4 88.9v-90.6l68.7 45.3-68.7 45.3z" fill="#FFFFFF"></path></symbol></defs><use xlink:href="#youtube"></use></svg>