<svg xmlns:xlink="http://www.w3.org/1999/xlink" xmlns="http://www.w3.org/2000/svg" class="icon list__icon" width="40"  height="40" ><defs><symbol viewBox="0 0 75 75" id="smart_home" xmlns="http://www.w3.org/2000/svg"><g fill="none"><circle fill="#0089B6" cx="37.5" cy="37.5" r="37.5"></circle><path d="M37.467 16a.897.897 0 00-.518.189L16.362 32.203a.891.891 0 00.204 1.547.897.897 0 00.897-.14l1.24-.964v23.462c0 .493.4.892.895.892h25.961c.005-.644.19-1.242.493-1.762H33.024V40.046h8.952v1.792c.581-.296 1.182-.54 1.79-.762v-2.792H31.234v16.954H20.493V31.254L37.5 18.024l17.007 13.23v9.698c.609.206 1.206.445 1.79.724v-9.03l1.24.964a.897.897 0 001.455-.573.891.891 0 00-.354-.834l-6.816-5.301v-6.464H46.45v2.285l-8.4-6.534a.897.897 0 00-.584-.188zM48 22h2v3l-2-1.264V22zm1 20c-3.617 0-7.232 1.276-10 3.828L40.25 47c4.822-4.52 12.678-4.52 17.5 0L59 45.828C56.232 43.276 52.615 42 49 42zm-.035 4c-2.534 0-5.056.931-6.965 2.79L43.273 50c3.182-3.027 8.272-3.027 11.454 0L56 48.79A10.192 10.192 0 0048.965 46zm.534 5c-1.27 0-2.54.553-3.499 1.657L47.167 54c1.25-1.44 3.333-1.44 4.666 0L53 52.657C52.042 51.553 50.77 51 49.5 51zM49 55c-1.1 0-2 .9-2 2s.9 2 2 2 2-.9 2-2-.9-2-2-2z" fill="#FFFFFF"></path></g></symbol></defs>
<use xlink:href="#smart_home"></use>
</svg>