<svg xmlns:xlink="http://www.w3.org/1999/xlink" xmlns="http://www.w3.org/2000/svg" class="icon list__icon" width="40"  height="40" ><defs><symbol viewBox="0 0 75 75" id="smart-tv" xmlns="http://www.w3.org/2000/svg"><g fill="none" fill-rule="evenodd"><circle fill="#5E2F26" cx="37.5" cy="37.5" r="37.5"></circle><path d="M60.344 21c.937 0 1.875.703 1.875 1.875v24.61c0 .937-.703 1.874-1.875 1.874H39.137c.593.587.956 1.556 1.754 1.875h14.765c.235 0 .469.235.703.47.235.233.47 3.046.47 3.046H18.624c0-.234.234-3.047.469-3.281.234-.235.468-.235.703-.469H35.03c.988-.564 1.041-1.213 1.438-1.64H14.875c-.938 0-1.875-.938-1.875-1.876V22.875c0-.938.703-1.875 1.875-1.875zm-3.282 3.281h-38.67c-.938 0-1.875.938-1.875 1.875v17.578c0 .938.703 1.875 1.875 1.875h38.672c.937 0 1.874-.703 1.874-1.875V26.156c0-.937-.703-1.875-1.874-1.875z" fill="#FFFFFF" fill-rule="nonzero"></path></g></symbol></defs>
<use xlink:href="#smart-tv"></use>
</svg>