<svg xmlns:xlink="http://www.w3.org/1999/xlink" xmlns="http://www.w3.org/2000/svg" class="icon list__icon" width="40"  height="40" ><defs><symbol viewBox="0 0 75 75" id="video" xmlns="http://www.w3.org/2000/svg"><g fill="none" fill-rule="evenodd"><circle fill="#7DB344" cx="37.5" cy="37.5" r="37.5"></circle><path d="M36.563 25.578c-1.641-.234-2.579-.703-3.75-1.172C31.405 23.703 30 23 27.422 23 22.032 23 15 35.188 15 44.328c0 4.219 2.11 7.031 5.39 7.031 4.688 0 7.97-2.578 10.782-4.687 2.11-1.64 3.984-3.281 6.094-3.281 2.109 0 3.984 1.406 6.093 3.28 2.813 2.345 6.094 4.688 10.782 4.688 3.047 0 5.39-2.812 5.39-7.03C59.531 35.186 52.5 23 47.11 23c-2.578 0-3.984.703-5.39 1.406-.938.469-1.875.938-3.516 1.172h-1.64zm11.484 4.219a2.1 2.1 0 012.11 2.11 2.1 2.1 0 01-2.11 2.109 2.1 2.1 0 01-2.11-2.11 2.1 2.1 0 012.11-2.11zm-22.734.234h3.75v3.75h3.75v3.75h-3.75v3.75h-3.75v-3.75h-3.75v-3.75h3.75v-3.75zm18.28 3.985a2.1 2.1 0 012.11 2.109 2.1 2.1 0 01-2.11 2.11 2.1 2.1 0 01-2.109-2.11c0-.938.938-2.11 2.11-2.11zm8.673 0a2.1 2.1 0 012.109 2.109 2.1 2.1 0 01-2.11 2.11 2.1 2.1 0 01-2.109-2.11c0-.938.938-2.11 2.11-2.11zm-4.22 4.453a2.1 2.1 0 012.11 2.11 2.1 2.1 0 01-2.11 2.108 2.1 2.1 0 01-2.108-2.109 2.1 2.1 0 012.109-2.11z" fill="#FFFFFF" fill-rule="nonzero"></path></g></symbol></defs>
<use xlink:href="#video"></use>
</svg>