<svg xmlns:xlink="http://www.w3.org/1999/xlink" xmlns="http://www.w3.org/2000/svg" class="icon list__icon" width="40"  height="40" ><defs><symbol viewBox="0 0 75 75" id="smartwatches_wearables" xmlns="http://www.w3.org/2000/svg"><g fill="none" fill-rule="evenodd"><circle fill="#F67828" fill-rule="nonzero" cx="37.5" cy="37.5" r="37.5"></circle><path d="M49.349 53.793c-.96 2.82-1.677 5.225-2.154 7.218-.477 1.993-1.384 3.093-2.722 3.3-7.752.4-12.536.52-14.353.362-1.864-.161-2.591-1.474-2.591-1.606-.318-.685-1.337-3.777-3.06-9.274 7.657 5.615 15.726 5.66 24.88 0zM36.909 19.46c10.443 0 18.908 8.354 18.908 18.66 0 10.306-8.465 18.66-18.908 18.66C26.466 56.779 18 48.425 18 38.119c0-10.306 8.466-18.66 18.909-18.66zm19.675 24.147a.746.746 0 01.51.924c-.473 1.639-1.168 3.13-2.104 4.61a.746.746 0 01-1.261-.8c.864-1.365 1.499-2.728 1.93-4.224a.746.746 0 01.925-.51zM37.32 42.37c-.681 0-1.233.557-1.233 1.244 0 .687.552 1.244 1.233 1.244a1.24 1.24 0 001.233-1.244c0-.687-.552-1.244-1.233-1.244zm-3.422-2.106a1.11 1.11 0 000 1.47.9.9 0 001.347 0c1.143-1.252 3.01-1.252 4.153 0a.91.91 0 00.672.304.91.91 0 00.671-.305c.37-.403.37-1.06 0-1.465-1.884-2.062-4.955-2.062-6.843-.004zm-2.471-2.522a.983.983 0 000 1.36.922.922 0 001.324 0 6.352 6.352 0 019.14 0 .92.92 0 00.661.282.92.92 0 00.66-.282.983.983 0 000-1.36 8.185 8.185 0 00-11.785 0zm-2.47-2.739a.91.91 0 000 1.293.937.937 0 001.31 0c3.888-3.845 10.218-3.845 14.11 0a.928.928 0 001.305 0 .91.91 0 000-1.293c-4.612-4.552-12.113-4.552-16.725 0zm26.53-7.011c.927 1.432 1.596 2.934 2.099 4.612a.746.746 0 01-1.43.428c-.464-1.548-1.076-2.922-1.922-4.23a.746.746 0 011.253-.81zM43.806 11c1.591.21 2.588 1.017 2.99 2.422.403 1.405 1.253 4.247 2.553 8.525-8.375-5.334-16.668-5.29-24.88 0 1.605-5.364 2.503-8.206 2.695-8.525.287-.48 1.159-2.422 2.852-2.422h13.79z" fill="#FFFFFF"></path></g></symbol></defs>
<use xlink:href="#smartwatches_wearables"></use>
</svg>